# xmcd CD database file
#
# Track frame offsets:
#	150
#	10520
#	22150
#	31899
#	41651
#	48973
#	57090
#	65241
#	79217
#	93138
#	100906
#	111166
#	124110
#	138016
#	152180
#	159306
#	170073
#	178171
#	189219
#	200622
#	213084
#
# Disc length: 3005 seconds
#
# Revision: 0
# Processed by: cddbd v1.5.1PL2 Copyright (c) Steve Scherf et al.
# Submitted via: CDex 1.51
#
DISCID=160bbb15
DTITLE=Michele Weir - Vocal Improvisation
DYEAR=2001
DGENRE=Jazz
TTITLE0=12 Bar Blues
TTITLE1=In The Time Of Summer
TTITLE2=Rhythm And Syllables Only
TTITLE3=C7 Bb7 F7 Eb7
TTITLE4=C6 C6 F6 F6
TTITLE5=C-6 Dhalfdim7 G7b9 F-6 Ghalfdim7 C7b9
TTITLE6=Cm7 A-7 D-7 G7
TTITLE7=Take The Train To Harlem
TTITLE8=Take The Train To Harlem
TTITLE9=E-7 A7 D-7 G7
TTITLE10=C-6 Db7 C-6 C-6
TTITLE11=Cm7 D-7 E-7 A-7
TTITLE12=Leaves Of Fall
TTITLE13=Leaves Of Fall
TTITLE14=Rhythm Etude
TTITLE15=D-7 G7b9 CM7 7b9
TTITLE16=DhalfDim7 G7b9 C-6 C-6
TTITLE17=Rhythm Changes
TTITLE18=The Moon Has Risen
TTITLE19=What Do They Call This
TTITLE20=What Do They Call This
EXTD=YEAR: 2001
EXTT0=
EXTT1=
EXTT2=
EXTT3=
EXTT4=
EXTT5=
EXTT6=
EXTT7=
EXTT8=
EXTT9=
EXTT10=
EXTT11=
EXTT12=
EXTT13=
EXTT14=
EXTT15=
EXTT16=
EXTT17=
EXTT18=
EXTT19=
EXTT20=
PLAYORDER=
